<svg xmlns="http://www.w3.org/2000/svg" xmlns:xlink="http://www.w3.org/1999/xlink" version="1.1" x="0px" y="0px" viewBox="0 0 100 100" enable-background="new 0 0 100 100" xml:space="preserve"><path d="M92.272,41.167l-5.966-6.352c1.441-1.25,2.112-3.269,1.534-5.214L81.663,8.833c-0.629-2.11-2.604-3.584-4.803-3.584  c-0.482,0-0.963,0.07-1.43,0.209L41.655,15.504c-1.283,0.381-2.342,1.239-2.979,2.417s-0.778,2.532-0.397,3.815l1.191,4L5.132,35.95  L8.93,48.718l7.847-2.334l-0.232-0.778c-0.035-0.118-0.021-0.244,0.038-0.354c0.059-0.108,0.155-0.188,0.273-0.223  c0.24-0.068,0.505,0.074,0.576,0.312l0.231,0.777l4.143-1.23l-0.23-0.78c-0.072-0.244,0.066-0.503,0.311-0.576  c0.242-0.07,0.506,0.074,0.576,0.312l0.232,0.779l9.963-2.965l-0.23-0.78c-0.072-0.243,0.066-0.501,0.311-0.574  c0.242-0.072,0.506,0.073,0.576,0.312l0.232,0.78l4.143-1.231l-0.23-0.782c-0.035-0.117-0.023-0.242,0.035-0.351  s0.156-0.188,0.275-0.224c0.24-0.069,0.505,0.074,0.576,0.312l0.23,0.779l4.691-1.395l0.25,0.84  c-1.455,3.395-0.875,7.479,1.811,10.339l0.675,0.719l-1.803,1.693l-3.645,3.422l2.298,2.447l-0.859,0.807l-0.06,2.076l-0.003,0.1  l-0.096-0.004l-2.072-0.064l-1.511,1.42l-2.001,1.881l-1.507,1.416l-0.065,2.068l-0.003,0.098l-0.099-0.002l-2.077-0.07  l-1.515,1.422l-1.799,1.689l-1.516,1.424l-0.06,2.078l-0.003,0.096l-0.096-0.002l-2.065-0.066l-1.509,1.412l-2.785,2.605  l-1.479,1.383l-0.1,2.023l-0.374,7.623l-0.254,5.176l5.181,0.07l7.631,0.102l2.02,0.027l1.471-1.383l24.684-23.184l1.336-1.254  l1.134-1.066l0.676,0.719c1.804,1.92,4.348,3.021,6.98,3.021c2.444,0,4.773-0.924,6.557-2.598l15.23-14.305  c1.865-1.75,2.938-4.123,3.018-6.68C94.943,45.466,94.023,43.032,92.272,41.167z M38.577,34.685  c-0.398-0.861-1.412-1.342-2.352-1.062c-0.938,0.279-1.521,1.222-1.388,2.173l-1.292,0.385c-0.397-0.861-1.416-1.338-2.35-1.061  c-0.957,0.284-1.531,1.21-1.389,2.174l-7.112,2.114c-0.398-0.86-1.413-1.339-2.351-1.061c-0.94,0.28-1.524,1.223-1.389,2.173  l-1.291,0.384c-0.399-0.862-1.42-1.342-2.352-1.06c-0.939,0.278-1.523,1.221-1.388,2.172l-1.63,0.485l-0.947-3.187l29.49-8.771  l0.947,3.187L38.577,34.685z M43.079,20.295l33.777-10.047c0.002,0,0.002,0,0.004,0l6.18,20.795l-0.216,0.064l-8.306-8.843  c-1.804-1.919-4.348-3.02-6.979-3.02h-0.001c-2.443,0-4.771,0.921-6.554,2.594L47.341,34.655L43.079,20.295z M88.423,51.059  l-15.23,14.305c-0.885,0.83-2.011,1.242-3.134,1.242c-1.219,0-2.435-0.484-3.336-1.443l-4.099-4.363l-4.78,4.488l-1.334,1.254  L31.826,89.725l-7.631-0.102l0.374-7.625l2.785-2.605l5.107,0.162l0.147-5.109l1.799-1.689l5.106,0.174l0.162-5.107l2-1.881  l5.107,0.16l0.147-5.109l2.987-2.805l-2.297-2.447l5.448-5.116l-4.099-4.363c-0.061-0.065-0.103-0.141-0.159-0.208  c-1.47-1.756-1.406-4.312,0.132-5.996c0.079-0.087,0.143-0.183,0.23-0.265l15.23-14.307c0.884-0.829,2.01-1.24,3.133-1.24  c1.219,0,2.436,0.484,3.336,1.442l6.587,7.013l3.83,4.078l7.336,7.81C90.357,46.432,90.268,49.328,88.423,51.059z"></path><path d="M70.057,40.12l-2.313-2.47c-0.93-0.993-2.49-1.044-3.484-0.114c-0.992,0.931-1.045,2.491-0.113,3.484l0.629,0.671  l8.391,8.96c0.932,0.994,2.49,1.044,3.484,0.113c0.994-0.93,1.045-2.49,0.113-3.482L70.057,40.12z"></path></svg>