<svg xmlns="http://www.w3.org/2000/svg" xmlns:xlink="http://www.w3.org/1999/xlink" version="1.1" x="0px" y="0px" viewBox="0 0 100 100" enable-background="new 0 0 100 100" xml:space="preserve"><g><rect x="33.64" y="53.326" transform="matrix(0.7071 0.7071 -0.7071 0.7071 56.4658 -5.1008)" fill="#000000" width="1.5" height="24.569"></rect><polygon fill="#000000" points="26.901,80.656 19.345,73.099 39.298,53.146 37.177,51.024 15.103,73.099 26.901,84.898    48.976,62.823 46.854,60.703  "></polygon><polygon fill="#000000" points="56.308,42.12 71.151,27.275 69.514,25.636 78.114,19.203 80.797,21.886 74.364,30.487    72.726,28.848 57.88,43.693 60.002,45.814 72.726,33.09 74.692,35.057 84.756,21.603 78.399,15.244 64.945,25.308 66.909,27.274    54.187,39.999  "></polygon><rect x="39.137" y="49.165" transform="matrix(-0.7072 -0.7071 0.7071 -0.7072 50.2099 120.6249)" fill="#000000" width="21.897" height="1.5"></rect><path fill="#000000" d="M81.22,61.816c-2.592-2.592-6.038-4.019-9.702-4.019c-1.01,0-2,0.118-2.964,0.33l-26.689-26.69   c0.969-4.42-0.25-9.227-3.68-12.656c-2.588-2.587-6.029-4.012-9.69-4.012c-1.408,0-2.803,0.214-4.144,0.637l-0.609,2.491   l3.916,3.915c1.657,1.658,1.656,4.355-0.002,6.015c-0.803,0.803-1.871,1.245-3.006,1.245c-1.136,0-2.204-0.442-3.008-1.245   l-3.828-3.83l-2.501,0.642c-1.402,4.813-0.073,10.004,3.468,13.546c2.592,2.591,6.037,4.019,9.701,4.019c0.001,0,0.001,0,0.001,0   c1.105,0,2.187-0.146,3.235-0.398l26.484,26.484c-1.082,4.494,0.111,9.429,3.613,12.931c2.587,2.587,6.028,4.012,9.69,4.012   c1.409,0,2.803-0.214,4.144-0.637l0.609-2.491l-3.916-3.916c-0.803-0.803-1.245-1.871-1.245-3.006c0-1.137,0.443-2.204,1.247-3.008   c0.804-0.803,1.871-1.245,3.008-1.245c1.136,0,2.203,0.441,3.006,1.244l3.83,3.83l2.501-0.642   C86.089,70.547,84.76,65.357,81.22,61.816z M20.901,36.063c-2.107-2.108-3.212-4.965-3.134-7.869l1.753,1.754   c1.371,1.37,3.192,2.124,5.129,2.124s3.758-0.754,5.127-2.124c2.828-2.828,2.829-7.429,0.002-10.257l-1.904-1.904   c3.055-0.174,6.021,0.948,8.189,3.115c4.179,4.18,4.179,10.98,0,15.16c-2.025,2.025-4.718,3.141-7.581,3.141   C25.618,39.203,22.927,38.087,20.901,36.063z M34.812,40.656c1.228-0.64,2.366-1.466,3.373-2.473   c1.082-1.081,1.934-2.305,2.577-3.605l24.657,24.656c-1.314,0.654-2.534,1.513-3.604,2.582c-1.018,1.018-1.84,2.158-2.471,3.373   L34.812,40.656z M80.479,70.051c-1.369-1.369-3.19-2.123-5.127-2.123c-1.938,0-3.76,0.754-5.129,2.124   c-1.37,1.369-2.125,3.19-2.126,5.128c0,1.938,0.754,3.759,2.124,5.128l1.904,1.905c-3.05,0.184-6.022-0.948-8.189-3.115   c-4.18-4.181-4.18-10.981,0-15.161c2.025-2.024,4.718-3.14,7.581-3.14s5.556,1.115,7.581,3.14c2.106,2.107,3.211,4.964,3.135,7.868   L80.479,70.051z"></path></g></svg>