<svg xmlns="http://www.w3.org/2000/svg" xmlns:xlink="http://www.w3.org/1999/xlink" version="1.1" x="0px" y="0px" viewBox="0 0 100 100" enable-background="new 0 0 100 100" xml:space="preserve"><path d="M77.5,5h-10v10h-55v5h13.8v4.5l-6.8,6.8h-3.2v10h22.5v-10h-3.2l-6.8-6.8V20h38.8v45l-10,0V50h-45v45h55h10h10V65l-10,0V20  H95v-5H77.5V5z M36.3,33.8v5H18.8v-5H36.3z M32,31.3h-9l4.5-4.5L32,31.3z M82.5,70v20h-65V55h35v15L82.5,70z"></path><rect x="22.5" y="75" width="10" height="10"></rect><rect x="37.5" y="75" width="10" height="10"></rect><rect x="52.5" y="75" width="10" height="10"></rect><rect x="67.5" y="75" width="10" height="10"></rect><rect x="37.5" y="60" width="10" height="10"></rect><rect x="22.5" y="60" width="10" height="10"></rect><rect x="80" y="22.5" width="10" height="12.5"></rect></svg>