<svg xmlns="http://www.w3.org/2000/svg" xmlns:xlink="http://www.w3.org/1999/xlink" version="1.1" x="0px" y="0px" viewBox="0 0 100 100" enable-background="new 0 0 100 100" xml:space="preserve"><g><path d="M69,24h-3v-7.5c0-1.93-1.57-3.5-3.5-3.5h-25c-1.93,0-3.5,1.57-3.5,3.5V24h-3v-7.5c0-3.584,2.916-6.5,6.5-6.5h25   c3.584,0,6.5,2.916,6.5,6.5V24z"></path></g><path d="M96,25v60H4V25H96 M96,22H4c-1.657,0-3,1.468-3,3.125v60C1,86.782,2.343,88,4,88h92c1.657,0,3-1.218,3-2.875v-60  C99,23.468,97.657,22,96,22L96,22z"></path><path d="M97.5,58.5c-0.828,0-1.5,0.672-1.5,1.5c0,2.056-1.701,4-3.5,4h-34h-17h-34C5.701,64,4,62.056,4,60  c0-0.828-0.671-1.5-1.5-1.5S1,59.172,1,60c0,3.729,3.038,7,6.5,7H40v3.5c0,0.828,0.671,1.5,1.5,1.5h17c0.828,0,1.5-0.672,1.5-1.5V67  h32.5c3.463,0,6.5-3.271,6.5-7C99,59.172,98.328,58.5,97.5,58.5z"></path></svg>