<svg xmlns="http://www.w3.org/2000/svg" xmlns:xlink="http://www.w3.org/1999/xlink" version="1.1" x="0px" y="0px" viewBox="0 0 100 100" enable-background="new 0 0 100 100" xml:space="preserve"><g><path d="M47.473,50.805c1.397,0.236,2.677,0.866,3.168,1.732c0.138,0.236,0.197,0.491,0.197,0.865c0,0.493-0.453,1.398-1.515,1.398   c-0.571,0-1.162-0.314-1.398-0.886c-0.118-0.257-0.315-0.434-0.59-0.571v3.129l0.531,0.178c2.44,0.984,3.602,2.205,3.602,4.055   c0,2.086-1.535,3.66-3.996,3.976c0,0.335,0.099,0.63,0.099,0.886c0,0.611-0.512,1.082-1.122,1.082c-0.59,0-1.102-0.491-1.102-1.102   c0-0.256,0.059-0.531,0.078-0.866c-2.047-0.256-3.622-1.357-3.975-2.755c-0.06-0.197-0.079-0.492-0.079-0.531   c0-0.886,0.689-1.496,1.535-1.496c0.768,0,1.437,0.57,1.496,1.279c0.02,0.473,0.492,0.866,1.181,1.023v-3.326l-0.315-0.119   c-2.322-0.925-3.582-2.342-3.582-4.191c0-2.047,1.417-3.523,3.739-3.799v-0.178c0-0.374-0.078-0.689-0.078-0.964   c0-0.61,0.512-1.102,1.102-1.102c0.61,0,1.122,0.472,1.122,1.082c0,0.275-0.099,0.61-0.099,0.964V50.805z M45.583,56.001v-2.795   c-0.708,0.157-1.063,0.63-1.063,1.22C44.521,54.957,44.737,55.548,45.583,56.001z M47.335,59.426v2.755   c0.689-0.196,1.181-0.649,1.181-1.279C48.517,60.41,48.202,59.918,47.335,59.426z"></path></g><g><g><path d="M68.145,63.709c-3.376,0-6.123-2.747-6.123-6.123c0-3.378,2.747-6.125,6.123-6.125c3.377,0,6.124,2.747,6.124,6.125    C74.269,60.962,71.521,63.709,68.145,63.709z M68.145,53.691c-2.146,0-3.893,1.747-3.893,3.895c0,2.146,1.746,3.893,3.893,3.893    s3.894-1.746,3.894-3.893C72.038,55.438,70.291,53.691,68.145,53.691z"></path></g><g><path d="M25.504,63.709c-3.377,0-6.124-2.747-6.124-6.123c0-3.378,2.747-6.125,6.124-6.125s6.125,2.747,6.125,6.125    C31.628,60.962,28.881,63.709,25.504,63.709z M25.504,53.691c-2.146,0-3.893,1.747-3.893,3.895c0,2.146,1.746,3.893,3.893,3.893    s3.893-1.746,3.893-3.893C29.397,55.438,27.65,53.691,25.504,53.691z"></path></g></g><g><path d="M12.487,67.11c3.514,0.062,6.306,2.862,6.356,6.376c0.008,0.61,0.505,1.1,1.115,1.1h52.791c0.61,0,1.106-0.489,1.115-1.1   c0.051-3.52,2.953-6.383,6.47-6.383c0.616,0,1.115-0.499,1.115-1.115V49.424c0-0.616-0.499-1.116-1.115-1.116   c-3.57,0-6.476-2.905-6.476-6.476c0-0.616-0.499-1.116-1.115-1.116H19.964c-0.616,0-1.116,0.5-1.116,1.116   c0,3.506-2.854,6.408-6.361,6.469c-0.608,0.01-1.096,0.507-1.096,1.115v16.578C11.391,66.604,11.878,67.1,12.487,67.11z    M79.219,50.469v14.476c-3.853,0.502-6.949,3.562-7.499,7.411H50.454c5.207-2.033,8.981-7.881,8.981-14.77   c0-6.752-3.629-12.496-8.676-14.637h20.939C72.201,46.859,75.309,49.966,79.219,50.469z M46.42,70.898   c-5.946,0-10.784-5.972-10.784-13.312s4.837-13.313,10.784-13.313s10.784,5.972,10.784,13.313S52.366,70.898,46.42,70.898z    M13.622,50.444c3.835-0.559,6.884-3.655,7.385-7.495h21.074c-5.046,2.141-8.676,7.885-8.676,14.637   c0,6.889,3.775,12.736,8.981,14.77H20.99c-0.533-3.84-3.53-6.846-7.368-7.39V50.444z"></path><path d="M92.417,28.084H17.449c-0.616,0-1.116,0.5-1.116,1.116v3.416h-3.141c-0.616,0-1.116,0.5-1.116,1.116v3.416H8.937   c-0.616,0-1.116,0.5-1.116,1.116v38.644c0,0.616,0.5,1.115,1.116,1.115h74.968c0.616,0,1.115-0.499,1.115-1.115v-3.416h3.142   c0.616,0,1.115-0.499,1.115-1.115v-3.417h3.141c0.616,0,1.115-0.499,1.115-1.115V29.2C93.532,28.584,93.033,28.084,92.417,28.084z    M82.789,75.792H10.052V39.379h72.737V75.792z M87.046,71.261H85.02V38.263c0-0.616-0.499-1.116-1.115-1.116H14.309v-2.3h72.737   V71.261z M91.302,66.729h-2.025V33.731c0-0.616-0.499-1.116-1.115-1.116H18.565v-2.3h72.737V66.729z"></path></g></svg>