<svg xmlns="http://www.w3.org/2000/svg" xmlns:xlink="http://www.w3.org/1999/xlink" version="1.1" x="0px" y="0px" viewBox="0 0 100 100" enable-background="new 0 0 100 100" xml:space="preserve"><g><path fill="#000000" d="M49.749,39.946c-11.767,0-22.077,9.432-22.65,21.056c-0.01,0.071,0,22.998,0,22.998h45.299   c0,0,0.01-22.91,0-22.979C71.826,49.396,61.516,39.946,49.749,39.946z M69.189,80.79h-38.88c-0.003-6.419-0.005-18.721,0-19.669   c0.514-9.764,9.403-17.965,19.44-17.965c10.038,0,18.926,8.182,19.44,17.947C69.195,62.05,69.192,74.371,69.189,80.79z"></path><path fill="#000000" d="M49.749,35.451c6.88,0,12.457-5.577,12.457-12.457s-5.577-12.457-12.457-12.457   s-12.457,5.577-12.457,12.457S42.869,35.451,49.749,35.451z M49.749,13.747c5.099,0,9.247,4.149,9.247,9.247   s-4.149,9.247-9.247,9.247s-9.247-4.149-9.247-9.247S44.65,13.747,49.749,13.747z"></path><path fill="#000000" d="M94.875,56.562c-0.465-9.474-8.869-17.52-18.459-17.52c-4.177,0-8.129,1.313-11.297,3.752   c5.705,4.336,9.599,11.497,9.961,18.893c0.006,0.04,0.006,7.87,0.005,14.29h19.791C94.875,75.976,94.883,56.618,94.875,56.562z    M91.667,72.766H78.295c0.002-8.726,0-11.234-0.014-11.234h0.006c-0.326-6.419-3.216-13.25-7.776-18.159   c1.826-0.738,3.82-1.122,5.904-1.122c7.862,0,14.832,6.591,15.249,14.409C91.67,57.508,91.668,66.735,91.667,72.766z"></path><path fill="#000000" d="M76.415,35.034c5.607,0,10.152-4.545,10.152-10.152s-4.545-10.152-10.152-10.152   c-5.607,0-10.152,4.545-10.152,10.152S70.81,35.034,76.415,35.034z M76.415,17.939c3.828,0,6.943,3.115,6.943,6.943   s-3.115,6.943-6.943,6.943s-6.943-3.115-6.943-6.943S72.588,17.939,76.415,17.939z"></path><path fill="#000000" d="M23.463,35.034c5.607,0,10.152-4.545,10.152-10.152S29.07,14.729,23.463,14.729S13.31,19.274,13.31,24.881   C13.31,30.489,17.855,35.034,23.463,35.034z M23.463,17.939c3.828,0,6.943,3.115,6.943,6.943s-3.115,6.943-6.943,6.943   s-6.943-3.115-6.943-6.943C16.52,21.054,19.635,17.939,23.463,17.939z"></path><path fill="#000000" d="M34.568,42.816c-3.138-2.354-7.01-3.93-11.106-3.93c-9.591,0-17.992,8.28-18.459,17.755   c-0.008,0.058,0,19.337,0,19.337h19.409c-0.002-6.419-0.002-14.328,0.003-14.368C24.784,54.132,28.762,47.147,34.568,42.816z    M21.216,61.532c-0.014,0-0.016,2.438-0.014,11.234H8.212c-0.002-6.007-0.003-15.18,0-16.028   c0.417-7.808,7.53-14.643,15.249-14.643c1.879,0,3.818,0.472,5.684,1.284c-4.71,4.904-7.605,11.733-7.934,18.153H21.216z"></path></g></svg>